<?xml version="1.0" standalone="no"?>
<!DOCTYPE svg PUBLIC "-//W3C//DTD SVG 20010904//EN"
 "http://www.w3.org/TR/2001/REC-SVG-20010904/DTD/svg10.dtd">
<svg version="1.0" xmlns="http://www.w3.org/2000/svg"
 width="349.000000pt" height="349.000000pt" viewBox="0 0 349.000000 349.000000"
 preserveAspectRatio="xMidYMid meet">
<metadata>
Created by potrace 1.14, written by Peter Selinger 2001-2017
</metadata>
<g transform="translate(0.000000,349.000000) scale(0.100000,-0.100000)"
fill="#000000" stroke="none">
<path d="M0 1745 l0 -1745 1745 0 1745 0 0 1745 0 1745 -1745 0 -1745 0 0
-1745z m886 977 c31 -26 54 -76 54 -117 l0 -36 -42 3 c-39 3 -43 5 -45 32 -1
16 -8 36 -16 43 -19 20 -64 7 -71 -20 -3 -12 -6 -94 -6 -183 0 -148 2 -162 20
-179 27 -25 59 -9 74 35 10 31 15 35 46 35 31 0 35 -3 38 -29 5 -38 -15 -81
-50 -111 -57 -48 -174 -23 -199 42 -5 15 -11 113 -12 217 -2 211 5 240 61 270
38 21 122 20 148 -2z m283 -19 c23 -84 111 -492 111 -512 0 -18 -6 -21 -40
-21 l-39 0 -7 49 c-8 64 -12 69 -59 71 -62 3 -63 3 -70 -42 -4 -24 -11 -51
-17 -60 -11 -22 -66 -24 -74 -3 -4 8 3 54 15 103 11 48 37 161 57 252 20 91
41 173 46 183 5 10 20 17 38 17 25 0 31 -5 39 -37z m372 12 c25 -19 37 -39 46
-73 24 -91 16 -140 -32 -192 l-23 -25 39 -115 c21 -63 39 -121 39 -127 0 -8
-15 -13 -40 -13 -46 0 -43 -6 -88 140 -24 78 -33 96 -51 98 -20 3 -21 0 -21
-105 0 -121 -5 -133 -57 -133 l-33 0 0 273 c0 199 3 276 12 285 7 7 43 12 93
12 71 0 85 -3 116 -25z m194 17 c6 -4 31 -65 54 -137 24 -71 47 -133 50 -137
4 -4 22 38 40 95 56 169 65 187 100 187 19 0 34 -7 40 -18 6 -12 9 -124 8
-283 l-2 -264 -40 0 -40 0 -5 150 c-6 165 -8 167 -51 25 -35 -116 -60 -107
-105 35 -15 50 -31 94 -35 98 -4 5 -6 -33 -4 -85 1 -51 0 -123 -3 -160 l-5
-68 -38 0 -39 0 0 278 c0 153 3 282 7 285 9 9 55 9 68 -1z m450 -277 l0 -280
-40 0 -40 0 -3 270 c-1 148 0 276 3 283 3 9 18 12 42 10 l38 -3 0 -280z m153
273 c5 -7 31 -76 57 -153 27 -77 52 -144 57 -150 5 -6 9 52 8 140 -1 83 -1
156 0 163 0 15 52 16 68 0 9 -9 12 -86 12 -285 l0 -273 -28 0 c-16 0 -36 6
-45 13 -9 6 -36 70 -61 141 -24 71 -49 133 -55 139 -8 8 -11 -32 -11 -141 l0
-152 -34 0 c-19 0 -37 4 -41 9 -4 8 -8 369 -5 539 0 18 6 22 34 22 18 0 38 -6
44 -12z m512 -28 l0 -39 -77 -3 -78 -3 0 -75 0 -75 65 -5 65 -5 3 -37 3 -37
-68 -3 -68 -3 -3 -77 -3 -78 81 0 80 0 0 -40 c0 -49 -9 -52 -140 -48 l-95 3
-3 270 c-1 148 0 275 3 282 3 10 36 13 120 13 l115 0 0 -40z m-1669 -718 c22
-19 31 -37 32 -62 2 -31 -1 -35 -26 -38 -23 -3 -29 2 -38 27 -17 49 -79 38
-79 -14 0 -26 23 -48 70 -68 56 -23 74 -51 74 -110 0 -96 -33 -137 -109 -137
-67 0 -132 95 -83 121 26 14 46 5 50 -22 4 -30 33 -47 56 -33 20 13 29 79 12
99 -6 8 -32 24 -56 36 -51 24 -74 61 -74 116 1 99 100 149 171 85z m254 -6 c0
-28 -2 -30 -46 -31 -26 -1 -52 -5 -58 -9 -6 -4 -11 -29 -11 -57 l0 -49 44 0
c83 0 91 -57 9 -62 l-48 -3 -3 -57 c-2 -42 1 -58 10 -59 7 0 33 -1 58 -2 43
-2 45 -3 45 -32 l0 -30 -84 -3 c-52 -2 -87 1 -91 8 -9 15 -6 393 3 408 6 9 32
12 90 10 l82 -3 0 -29z m110 2 c8 -18 24 -66 37 -105 12 -40 25 -73 29 -73 3
0 21 45 39 100 27 82 38 102 56 106 13 3 28 3 33 -1 7 -4 11 -78 11 -211 0
-180 -2 -205 -16 -211 -38 -14 -49 9 -54 118 l-5 103 -23 -72 c-31 -97 -49
-97 -82 1 l-25 72 -5 -110 -5 -110 -30 0 -30 0 -3 200 c-1 110 0 205 2 212 3
7 17 13 31 13 20 0 29 -8 40 -32z m414 10 c11 -6 24 -23 30 -35 15 -33 13
-104 -3 -126 -12 -16 -12 -22 0 -45 19 -37 18 -118 -3 -153 -20 -34 -72 -52
-136 -47 l-42 3 -3 200 c-1 110 0 206 3 214 4 11 19 13 70 8 35 -3 73 -12 84
-19z m234 11 c75 -20 97 -123 42 -202 -14 -21 -19 -39 -15 -48 13 -23 50 -137
50 -154 0 -17 -27 -20 -50 -5 -8 5 -26 44 -41 87 -16 50 -32 79 -42 81 -14 3
-17 -10 -19 -85 -3 -88 -3 -88 -30 -91 l-28 -3 -1 83 c-1 46 -1 139 0 208 0
69 1 128 1 133 0 11 89 9 133 -4z m235 -6 c5 -10 14 -43 21 -73 6 -30 25 -115
41 -189 16 -73 27 -138 24 -142 -8 -13 -38 -11 -52 3 -7 7 -12 21 -12 32 0 34
-16 49 -49 49 -39 0 -43 -4 -50 -50 -5 -28 -12 -39 -26 -41 -34 -4 -46 11 -36
44 5 16 16 65 25 109 10 44 21 96 25 115 5 19 15 63 22 98 11 54 16 62 36 62
12 0 26 -8 31 -17z m-1992 -512 c23 -10 52 -34 65 -52 21 -30 24 -45 24 -121
0 -81 -2 -89 -27 -115 l-28 -29 28 -27 c26 -26 27 -32 27 -130 0 -171 -37
-207 -217 -207 l-108 0 0 343 c0 189 3 347 7 350 3 4 47 7 97 7 67 0 102 -5
132 -19z m450 -7 c57 -42 69 -69 72 -163 4 -97 -9 -138 -54 -177 l-25 -21 51
-148 c27 -81 50 -151 50 -155 0 -5 -23 -10 -51 -12 -39 -2 -53 1 -58 12 -3 8
-24 74 -46 145 -40 127 -41 130 -69 130 l-29 0 0 -138 c0 -87 -4 -140 -11
-146 -9 -7 -46 -8 -88 -2 -5 1 -8 159 -8 352 l0 351 119 -3 c102 -3 124 -7
147 -25z m419 1 c67 -39 70 -55 70 -335 0 -243 0 -245 -24 -279 -48 -67 -153
-90 -225 -48 -80 46 -81 47 -84 325 -2 241 -2 248 20 286 45 77 158 101 243
51z m403 11 c43 -22 70 -58 81 -106 6 -25 11 -137 11 -250 0 -194 -1 -208 -22
-250 -42 -82 -151 -114 -232 -67 -80 45 -81 48 -84 320 -4 278 1 300 72 342
48 29 130 34 174 11z m280 -146 l3 -155 62 141 c34 78 68 148 76 157 15 19
101 24 101 7 0 -6 -29 -69 -66 -141 l-65 -131 80 -206 c44 -113 78 -208 76
-211 -6 -6 -92 -4 -102 2 -4 3 -30 69 -58 146 -27 77 -53 141 -57 141 -4 0
-17 -19 -29 -42 -19 -37 -22 -57 -20 -145 1 -101 1 -103 -23 -109 -13 -3 -37
-4 -52 -2 l-29 3 -3 340 c-1 187 0 346 3 353 3 9 20 12 52 10 l48 -3 3 -155z
m418 140 c1 -8 2 -142 3 -297 l1 -283 95 0 c93 0 95 -1 101 -25 3 -14 3 -36 0
-49 -6 -25 -7 -25 -142 -28 -74 -2 -142 1 -150 5 -12 7 -14 64 -14 346 0 186
3 341 7 345 4 4 28 6 53 4 31 -2 45 -8 46 -18z m254 -45 c10 -33 28 -94 40
-135 20 -68 23 -73 32 -50 5 14 13 43 18 65 4 22 13 54 19 70 6 17 16 49 21
73 l11 42 54 0 c30 0 55 -3 55 -7 0 -5 -29 -93 -65 -197 l-65 -189 0 -147 c0
-100 -4 -150 -12 -158 -15 -15 -53 -16 -79 -2 -17 10 -19 23 -19 150 l0 140
-65 194 c-36 106 -65 199 -65 205 0 8 17 11 51 9 l51 -3 18 -60z m409 23 c9
-24 42 -112 71 -195 30 -84 58 -153 62 -153 5 0 8 87 7 193 l-2 192 49 0 49 0
3 -346 c2 -336 2 -347 -17 -352 -11 -2 -35 -2 -53 2 -31 6 -35 12 -59 81 -14
41 -46 129 -70 195 l-44 120 -3 -197 c-3 -217 -2 -215 -67 -202 -30 5 -33 9
-38 52 -7 61 0 629 8 642 3 5 24 10 46 10 37 0 41 -3 58 -42z"/>
<path d="M1111 2483 c-7 -37 -15 -78 -18 -90 -4 -20 -1 -23 25 -23 17 0 34 4
37 10 5 8 -21 159 -29 168 -2 2 -9 -28 -15 -65z"/>
<path d="M1416 2653 c-3 -4 -6 -41 -6 -84 0 -61 3 -78 16 -83 24 -9 63 4 74
24 15 29 12 116 -4 129 -16 14 -71 23 -80 14z"/>
<path d="M1874 1939 c-4 -7 -7 -30 -8 -53 -1 -36 2 -41 22 -44 51 -7 73 62 30
92 -27 19 -35 20 -44 5z"/>
<path d="M1868 1773 c-8 -17 0 -115 10 -125 8 -8 18 -6 36 6 47 30 29 126 -24
126 -10 0 -20 -3 -22 -7z"/>
<path d="M2120 1880 c0 -59 0 -60 28 -60 37 0 52 17 52 56 0 52 -9 64 -46 64
l-34 0 0 -60z"/>
<path d="M2397 1860 c-5 -14 -18 -99 -18 -117 0 -12 32 -16 41 -6 4 4 2 37 -5
73 -7 36 -15 58 -18 50z"/>
<path d="M310 1304 l0 -97 47 6 c58 6 73 25 73 94 0 67 -22 93 -80 93 l-40 0
0 -96z"/>
<path d="M310 1010 l0 -110 38 0 c63 0 82 28 82 119 0 76 -20 101 -80 101
l-40 0 0 -110z"/>
<path d="M729 1398 c0 -2 -1 -45 -2 -97 -2 -110 5 -123 61 -114 58 9 67 23 67
109 0 89 -12 104 -82 104 -24 0 -43 -1 -44 -2z"/>
<path d="M1160 1373 c-20 -25 -21 -37 -19 -230 1 -173 3 -206 17 -223 26 -29
64 -35 92 -12 23 19 23 21 24 234 1 199 -1 218 -18 237 -27 30 -70 27 -96 -6z"/>
<path d="M1580 1380 c-19 -19 -20 -33 -20 -230 0 -211 0 -211 25 -235 29 -29
55 -32 84 -7 19 16 22 30 26 172 6 180 -2 285 -22 306 -21 20 -70 17 -93 -6z"/>
</g>
</svg>
